# xmcd
#
# Track frame offsets:
#	150
#	19266
#	38077
#	51000
#	67539
#	85334
#	101526
#	121774
#	140954
#	161716
#	195000
#
# Disc length: 2687 seconds
#
# Revision: 1
# Processed by: cddbd v1.5.2PL0 Copyright (c) Steve Scherf et al.
# Submitted via: audiograbber 1.83.01
#
DISCID=850a7d0b
DTITLE=Necroid - Nefarious Destiny
DYEAR=2007
DGENRE=Death Metal
TTITLE0=Enemy inside
TTITLE1=Betrayed by life
TTITLE2=Manipulation
TTITLE3=Racked and ruined
TTITLE4=The blood of all
TTITLE5=Shadows of the light
TTITLE6=Retribution
TTITLE7=Follow the order
TTITLE8=Amnesia
TTITLE9=Demolishing poetry
TTITLE10=Daten-CD
EXTD=
EXTT0=
EXTT1=
EXTT2=
EXTT3=
EXTT4=
EXTT5=
EXTT6=
EXTT7=
EXTT8=
EXTT9=
EXTT10=
PLAYORDER=
